# xmcd CD database file
# Copyright (C) 1995-1998 Ti Kan
#
# Track frame offsets:
#	150
#	14350
#	33707
#	53507
#	84600
#	96677
#	113902
#	125782
#
# Disc length: 2214 seconds
#
# Revision: 2
# Processed by: cddbd v1.4PL0 Copyright (c) Steve Scherf et al.
# Submitted via: CDex 1.30Release
#
DISCID=6d08a408
DTITLE=Flavium - Bad Luck
DYEAR=1975
DGENRE=Blues
TTITLE0=Thumbing back west
TTITLE1=Ask the union
TTITLE2=Bad luck
TTITLE3=Waiting at the busstop
TTITLE4=Key to your heart
TTITLE5=Who shot little Larry
TTITLE6=Run Joey
TTITLE7=Buy me a bottle
EXTD=YEAR: 1975 ID3G:   0
EXTT0=
EXTT1=
EXTT2=
EXTT3=
EXTT4=
EXTT5=
EXTT6=
EXTT7=
PLAYORDER=
